# xmcd
#
# Track frame offsets:
#	150
#	55052
#	61209
#	139911
#	169349
#	199786
#	220740
#	267705
#	306526
#
# Disc length: 4665 seconds
#
# Revision: 1
# Processed by: cddbd v1.5.2PL0 Copyright (c) Steve Scherf et al.
# Submitted via: audiograbber 1.83.01
#
DISCID=90123709
DTITLE=Grateful Dead - 77-05-09 War Memorial Auditorium, Buffalo NY
DYEAR=1900
DGENRE=
TTITLE0=Help On The Way
TTITLE1=Slipknot!
TTITLE2=Franklin's Tower
TTITLE3=Cassidy
TTITLE4=Brown-Eyed Women
TTITLE5=Mexicali Blues
TTITLE6=Tennessee Jed
TTITLE7=Big River
TTITLE8=Peggy-O
EXTD=
EXTT0=
EXTT1=
EXTT2=
EXTT3=
EXTT4=
EXTT5=
EXTT6=
EXTT7=
EXTT8=
PLAYORDER=
